<?xml version="1.0" encoding="UTF-8"?>
<svg version="1.1" xmlns="http://www.w3.org/2000/svg" width="226" height="226">
<path d="M0 0 C74.58 0 149.16 0 226 0 C226 74.58 226 149.16 226 226 C151.42 226 76.84 226 0 226 C0 151.42 0 76.84 0 0 Z " fill="#FCFCFC" transform="translate(0,0)"/>
<path d="M0 0 C1.01825867 -0.00953201 2.03651733 -0.01906403 3.08563232 -0.02888489 C4.73562225 -0.02751778 4.73562225 -0.02751778 6.41894531 -0.02612305 C8.11896698 -0.03255074 8.11896698 -0.03255074 9.85333252 -0.03910828 C12.2541029 -0.04485604 14.65489071 -0.04534857 17.05566406 -0.04101562 C20.71872987 -0.03786616 24.38098002 -0.06127376 28.04394531 -0.08666992 C30.37727763 -0.08894399 32.71061211 -0.08964591 35.04394531 -0.08862305 C36.13584167 -0.09783279 37.22773804 -0.10704254 38.35272217 -0.11653137 C44.98481169 -0.07645842 50.54624625 0.23390965 55.73925781 4.80981445 C59.10859629 9.35261219 60.12229514 11.42777318 60.14233398 17.05371094 C60.14871384 18.26514267 60.15509369 19.4765744 60.16166687 20.72471619 C60.16277969 22.03928299 60.16389252 23.35384979 60.16503906 24.70825195 C60.16825141 26.06584204 60.17161546 27.42343177 60.17512512 28.78102112 C60.18111699 31.62827355 60.18296496 34.47549562 60.18237305 37.32275391 C60.18227141 40.97246655 60.19592516 44.62198473 60.21314526 48.27165127 C60.22425974 51.07604366 60.22629243 53.88038894 60.22576332 56.6848011 C60.22751874 58.68509993 60.23836288 60.68538406 60.24931335 62.68565369 C60.24623672 63.90023758 60.2431601 65.11482147 60.23999023 66.36621094 C60.24141525 67.43717514 60.24284027 68.50813934 60.24430847 69.61155701 C59.99707031 72.2746582 59.99707031 72.2746582 57.99707031 75.2746582 C55.49707031 75.5871582 55.49707031 75.5871582 52.99707031 75.2746582 C50.32948086 72.60706875 50.74096891 71.31417649 50.72583008 67.58740234 C50.71564346 66.39599136 50.70545685 65.20458038 50.69496155 63.97706604 C50.6928215 62.68437302 50.69068146 61.39167999 50.68847656 60.05981445 C50.67738225 58.72463372 50.66498989 57.3894632 50.65135193 56.05430603 C50.59587886 50.37825806 50.56524297 44.70213616 50.54077148 39.02587891 C50.52490245 35.55451792 50.49469056 32.08351099 50.456007 28.6123333 C50.43867953 26.64535512 50.43830212 24.67825139 50.43812561 22.7111969 C50.41811745 20.91935219 50.41811745 20.91935219 50.39770508 19.09130859 C50.39263443 18.03810928 50.38756378 16.98490997 50.38233948 15.89979553 C49.94428105 12.91496403 49.3743661 12.05612801 46.99707031 10.2746582 C44.51027079 9.03125844 42.77909943 9.11638333 39.99658203 9.06933594 C38.95565399 9.04939072 37.91472595 9.0294455 36.84225464 9.00889587 C35.71514069 8.99218338 34.58802673 8.97547089 33.42675781 8.95825195 C32.27539337 8.93747086 31.12402893 8.91668976 29.93777466 8.89527893 C26.24926891 8.82974155 22.56069028 8.77087892 18.87207031 8.7121582 C16.37596894 8.66897698 13.87987501 8.62536282 11.38378906 8.58129883 C5.2549605 8.47405589 -0.87394102 8.37229731 -7.00292969 8.2746582 C-7.33292969 6.2946582 -7.66292969 4.3146582 -8.00292969 2.2746582 C-4.73700968 0.0973782 -3.78345991 0.01945524 0 0 Z " fill="#141313" transform="translate(44.0029296875,112.725341796875)"/>
<path d="M0 0 C2.5 0.25 2.5 0.25 4.5 2.25 C4.76069641 4.76593018 4.76069641 4.76593018 4.7746582 7.98144531 C4.78419022 9.18319397 4.79372223 10.38494263 4.80354309 11.62310791 C4.80263168 12.92826355 4.80172028 14.23341919 4.80078125 15.578125 C4.80466829 16.92852917 4.80900297 18.27893213 4.81376648 19.6293335 C4.82123648 22.46402948 4.82093313 25.29860098 4.81567383 28.13330078 C4.80989675 31.7559332 4.82676293 35.37805142 4.8500185 39.00059891 C4.8647989 41.79226637 4.86562141 44.5838115 4.86250877 47.37551117 C4.86326851 49.35739901 4.87711756 51.33926793 4.89118958 53.32110596 C4.88496078 54.53546326 4.87873199 55.74982056 4.87231445 57.00097656 C4.87294388 58.06527893 4.8735733 59.1295813 4.8742218 60.22613525 C4.28314755 65.00225622 2.36467455 69.04698226 -1.4375 72.0625 C-5.66155226 75.07968019 -8.67174563 75.37421891 -13.78759766 75.39526367 C-14.84194 75.40164352 -15.89628235 75.40802338 -16.98257446 75.41459656 C-18.11496552 75.41570938 -19.24735657 75.4168222 -20.4140625 75.41796875 C-21.58004974 75.42129715 -22.74603699 75.42462555 -23.94735718 75.42805481 C-26.41021327 75.43311512 -28.87307621 75.43546341 -31.3359375 75.43530273 C-35.11730088 75.43749554 -38.89837549 75.45567823 -42.6796875 75.47460938 C-45.0703115 75.47754213 -47.46093689 75.47952771 -49.8515625 75.48046875 C-50.98800201 75.48765427 -52.12444153 75.49483978 -53.2953186 75.50224304 C-54.86737564 75.4976281 -54.86737564 75.4976281 -56.47119141 75.49291992 C-57.8587413 75.49505745 -57.8587413 75.49505745 -59.27432251 75.49723816 C-61.5 75.25 -61.5 75.25 -63.5 73.25 C-62.94444444 68.69444444 -62.94444444 68.69444444 -61.5 67.25 C-59.89471026 67.14804995 -58.28502574 67.11430803 -56.67651367 67.1081543 C-55.13437447 67.09760262 -55.13437447 67.09760262 -53.56108093 67.08683777 C-52.44135391 67.08267349 -51.32162689 67.07850922 -50.16796875 67.07421875 C-47.8196525 67.05102011 -45.47134518 67.02690276 -43.12304688 67.00195312 C-39.4031783 66.96681134 -35.68363751 66.93748607 -31.96362305 66.92407227 C-28.38549638 66.9086278 -24.80834021 66.86843502 -21.23046875 66.82421875 C-20.11681442 66.82612717 -19.0031601 66.82803558 -17.85575867 66.83000183 C-16.81820938 66.81351089 -15.7806601 66.79701996 -14.71166992 66.7800293 C-13.79979416 66.77416306 -12.8879184 66.76829681 -11.94841003 66.76225281 C-8.64163341 66.07041378 -7.48136032 64.96415412 -5.5 62.25 C-4.89961507 59.44784093 -4.89961507 59.44784093 -4.98583984 56.31982422 C-4.9725766 55.12533661 -4.95931335 53.930849 -4.94564819 52.70016479 C-4.95069366 51.41465729 -4.95573914 50.12914978 -4.9609375 48.8046875 C-4.95102975 47.46996449 -4.93908819 46.13525517 -4.92520142 44.80056763 C-4.89286439 41.29305185 -4.88244883 37.78584841 -4.87835693 34.27819824 C-4.8706394 29.32803099 -4.84383426 24.37801112 -4.80337524 19.42800903 C-4.78364325 16.792712 -4.77442123 14.15731226 -4.77645874 11.52194214 C-4.76602036 9.73966721 -4.76602036 9.73966721 -4.75537109 7.92138672 C-4.75411224 6.87199921 -4.75285339 5.82261169 -4.7515564 4.74142456 C-4.39927525 1.25241809 -3.48807355 0.34880736 0 0 Z " fill="#131313" transform="translate(99.5,23.75)"/>
<path d="M0 0 C3 0.125 3 0.125 4 1.125 C4.1129475 2.97507927 4.15681941 4.82941336 4.17358398 6.68286133 C4.18707382 7.87112015 4.20056366 9.05937897 4.21446228 10.28364563 C4.22490067 11.57836288 4.23533905 12.87308014 4.24609375 14.20703125 C4.26158907 15.5412427 4.27779812 16.87544604 4.29469299 18.2096405 C4.36554377 23.88746663 4.42551221 29.56537249 4.47680664 35.2434082 C4.50863797 38.71357206 4.549929 42.18352022 4.59700203 45.65350914 C4.62078203 47.61877 4.63375843 49.58415194 4.64659119 51.54951477 C4.66323318 52.74723007 4.67987518 53.94494537 4.69702148 55.17895508 C4.70732895 56.23294998 4.71763641 57.28694489 4.72825623 58.37287903 C5.00241928 61.14950161 5.48092741 62.80274924 7 65.125 C9.50854629 66.37927314 11.2688738 66.27679786 14.07641602 66.31445312 C15.13413712 66.33117065 16.19185822 66.34788818 17.28163147 66.3651123 C18.42748215 66.37868774 19.57333282 66.39226318 20.75390625 66.40625 C21.92509506 66.42465942 23.09628387 66.44306885 24.30296326 66.46203613 C29.33200681 66.54095496 34.36118821 66.6086035 39.39038086 66.67724609 C43.05329319 66.72882641 46.7160848 66.78612858 50.37890625 66.84375 C51.52678116 66.85732544 52.67465607 66.87090088 53.85731506 66.8848877 C55.43916847 66.90996399 55.43916847 66.90996399 57.05297852 66.93554688 C57.9862648 66.94807495 58.91955109 66.96060303 59.88111877 66.97351074 C62 67.125 62 67.125 63 68.125 C63.125 71.125 63.125 71.125 63 74.125 C61.31214163 75.81285837 59.18766001 75.29579215 56.87280273 75.33374023 C55.22990517 75.36267616 55.22990517 75.36267616 53.55381775 75.39219666 C48.51532063 75.44981164 43.47697128 75.49926169 38.43823242 75.5300293 C35.78273917 75.54777635 33.12976116 75.58562087 30.47436523 75.63256836 C26.64795159 75.6996398 22.82301279 75.72704764 18.99609375 75.74609375 C17.81558945 75.77392441 16.63508514 75.80175507 15.41880798 75.83042908 C8.77982199 75.81394344 4.63932871 75.12587835 -0.51158142 70.80628967 C-3.91597955 66.96074549 -4.24935644 63.89340771 -4.24291992 58.81176758 C-4.24599655 57.53396927 -4.24907318 56.25617096 -4.25224304 54.93965149 C-4.24534687 53.54960957 -4.23808002 52.15956944 -4.23046875 50.76953125 C-4.22927633 49.34274843 -4.22882392 47.91596481 -4.2290802 46.48918152 C-4.22751816 43.50421206 -4.21924752 40.51936301 -4.20581055 37.53442383 C-4.18877483 33.7007745 -4.18499767 29.86725685 -4.18575573 26.0335741 C-4.18548445 23.09029372 -4.1800108 20.14704235 -4.17275429 17.20377159 C-4.16956447 15.78951932 -4.16759949 14.37526375 -4.16686058 12.96100807 C-4.16470296 10.99067635 -4.15517447 9.0203568 -4.14526367 7.05004883 C-4.14145187 5.92738113 -4.13764008 4.80471344 -4.13371277 3.64802551 C-3.93920352 -0.0221685 -3.73058231 0.15544093 0 0 Z " fill="#0C0C0C" transform="translate(127,23.875)"/>
<path d="M0 0 C1.57655869 -0.01429802 1.57655869 -0.01429802 3.18496704 -0.02888489 C4.87110611 -0.02751778 4.87110611 -0.02751778 6.59130859 -0.02612305 C7.75350922 -0.03040817 8.91570984 -0.0346933 10.11312866 -0.03910828 C12.56580962 -0.04484389 15.01850759 -0.04535751 17.47119141 -0.04101562 C21.23287701 -0.03784758 24.99378223 -0.06135343 28.75537109 -0.08666992 C31.1381826 -0.08894209 33.52099622 -0.0896468 35.90380859 -0.08862305 C37.03194977 -0.09783279 38.16009094 -0.10704254 39.32241821 -0.11653137 C40.88952042 -0.10718819 40.88952042 -0.10718819 42.48828125 -0.09765625 C43.4080777 -0.09828568 44.32787415 -0.0989151 45.27554321 -0.0995636 C47.61474609 0.2746582 47.61474609 0.2746582 49.45077515 1.66511536 C50.61474609 3.2746582 50.61474609 3.2746582 50.36474609 5.3996582 C49.61474609 7.2746582 49.61474609 7.2746582 48.61474609 8.2746582 C47.04557633 8.38173637 45.47170273 8.42087744 43.89892578 8.43237305 C42.89408142 8.44263519 41.88923706 8.45289734 40.85394287 8.46347046 C39.75922668 8.47077179 38.6645105 8.47807312 37.53662109 8.4855957 C35.23843695 8.51366977 32.94025997 8.54233427 30.64208984 8.5715332 C27.00358316 8.612785 23.36520918 8.64965485 19.7265625 8.67602539 C16.22546457 8.70362682 12.72498224 8.7495084 9.22412109 8.7980957 C8.13750183 8.80134857 7.05088257 8.80460144 5.93133545 8.80795288 C-1.25856979 8.81317943 -1.25856979 8.81317943 -7.38525391 12.2746582 C-8.70602043 14.91619125 -8.53172137 16.92783115 -8.55883789 19.88598633 C-8.57232773 21.06060425 -8.58581757 22.23522217 -8.59971619 23.44543457 C-8.61015457 24.71939087 -8.62059296 25.99334717 -8.63134766 27.3059082 C-8.6558467 29.29481541 -8.68035696 31.28372255 -8.70554447 33.27262115 C-8.76642298 38.19036759 -8.81708608 43.10820748 -8.86206055 48.02612305 C-8.88766319 50.78349676 -8.91845602 53.54072135 -8.95484924 56.29797363 C-8.98881062 58.89984798 -9.01465929 61.50184261 -9.03184509 64.10388184 C-9.05680809 65.86580872 -9.05680809 65.86580872 -9.08227539 67.66333008 C-9.09258286 68.70098511 -9.10289032 69.73864014 -9.11351013 70.80773926 C-9.38525391 73.2746582 -9.38525391 73.2746582 -11.38525391 75.2746582 C-15.94080946 74.71910265 -15.94080946 74.71910265 -17.38525391 73.2746582 C-17.51599203 71.35438839 -17.57659406 69.42931046 -17.60986328 67.50488281 C-17.63238159 66.2694725 -17.6548999 65.03406219 -17.67810059 63.76121521 C-17.75374894 58.08169162 -17.80685353 52.40205622 -17.84521484 46.72216797 C-17.86743165 43.72743935 -17.90910161 40.73396859 -17.96826172 37.73974609 C-18.03963323 34.12039553 -18.0760886 30.50222217 -18.08833313 26.88220406 C-18.09869233 25.50708263 -18.12101872 24.13199378 -18.15592957 22.75727654 C-18.44663849 10.67786599 -18.44663849 10.67786599 -14.15283203 5.49169922 C-9.99892607 1.31638321 -5.81023795 0.02905405 0 0 Z " fill="#0D0D0D" transform="translate(140.38525390625,112.725341796875)"/>
<path d="M0 0 C0.99 0.495 0.99 0.495 2 1 C2 19.48 2 37.96 2 57 C2.99 57 3.98 57 5 57 C5.33 56.01 5.66 55.02 6 54 C6 55.98 6 57.96 6 60 C4.33388095 60.042721 2.66617115 60.04063832 1 60 C0 59 0 59 -0.12025452 56.63987732 C-0.11803391 55.59396927 -0.11581329 54.54806122 -0.11352539 53.47045898 C-0.11344986 52.28931015 -0.11337433 51.10816132 -0.11329651 49.89122009 C-0.10813522 48.6058284 -0.10297394 47.32043671 -0.09765625 45.99609375 C-0.0962413 44.68794205 -0.09482635 43.37979034 -0.09336853 42.03199768 C-0.0895441 38.54837141 -0.07971446 35.06478661 -0.06866455 31.58117676 C-0.05844882 28.02873292 -0.05387056 24.47628241 -0.04882812 20.92382812 C-0.03809212 13.94920168 -0.0210166 6.97460283 0 0 Z " fill="#080808" transform="translate(96,128)"/>
<path d="M0 0 C0.99 0.33 1.98 0.66 3 1 C2.34 1.66 1.68 2.32 1 3 C0.66767316 5.71034638 0.66767316 5.71034638 0.68115234 8.91845703 C0.66128265 10.15959259 0.64141296 11.40072815 0.62094116 12.67947388 C0.60906389 14.03891827 0.59740108 15.39836455 0.5859375 16.7578125 C0.56723271 18.14502118 0.54765981 19.5322184 0.5272522 20.91940308 C0.47585188 24.57225804 0.43626875 28.22514994 0.39910889 31.87817383 C0.35911852 35.60507397 0.30800361 39.33181949 0.2578125 43.05859375 C0.16095981 50.37228988 0.07658525 57.6860606 0 65 C-0.33 65 -0.66 65 -1 65 C-1.02312684 56.67271053 -1.04091683 48.34543437 -1.05181217 40.01812077 C-1.05704026 36.15179882 -1.06413654 32.28549879 -1.07543945 28.41918945 C-1.086271 24.69096599 -1.0922774 20.96276366 -1.09487724 17.23452568 C-1.09673101 15.80910344 -1.10035071 14.38368241 -1.10573006 12.95826912 C-1.11294393 10.96836592 -1.11340808 8.97844166 -1.11352539 6.98852539 C-1.115746 5.85379288 -1.11796661 4.71906036 -1.12025452 3.54994202 C-1 1 -1 1 0 0 Z " fill="#111212" transform="translate(124,24)"/>
<path d="M0 0 C0.99 0.33 1.98 0.66 3 1 C2.34 1.66 1.68 2.32 1 3 C0.69940057 5.36509361 0.50484988 7.74441881 0.375 10.125 C0.30023438 11.40632813 0.22546875 12.68765625 0.1484375 14.0078125 C0.09945312 14.99523438 0.05046875 15.98265625 0 17 C-0.33 17 -0.66 17 -1 17 C-1.02684679 14.35409986 -1.04676357 11.70846904 -1.0625 9.0625 C-1.07087891 8.30775391 -1.07925781 7.55300781 -1.08789062 6.77539062 C-1.09652441 4.85005687 -1.05224333 2.92464419 -1 1 C-0.67 0.67 -0.34 0.34 0 0 Z " fill="#171717" transform="translate(124,24)"/>
</svg>
